<?xml version="1.0" encoding="UTF-8"?>
<svg xmlns="http://www.w3.org/2000/svg" width="64" height="64" viewBox="408 160 185 185" role="img" aria-label="FairerMind leaf">
  <title>FairerMind leaf</title>
  <style
   type="text/css"
   id="style1">
	.st0{fill:#00A7A7;}
	.st1{fill:#006D6F;}
</style>
  <g
   id="Layer_2"
   transform="matrix(0.86591539,0,0,0.85012176,-11.846358,-36.66941)">
	<path
   class="st1"
   d="m 542.72,383.84 c -0.81,2.46 -1.7,4.56 -2.2,6.74 -1.81,7.88 -3.84,15.75 -4.99,23.73 -0.14,0.95 0.45,2 1.25,3.08 1.42,1.92 4.27,1.92 5.7,0 0.4,-0.54 0.74,-1.1 0.95,-1.7 4.45,-12.79 8.46,-25.74 12.98,-38.51 1.6,-4.53 5.07,-7.95 10.03,-8.84 7.16,-1.29 14.36,-2.39 21.59,-3.16 20.28,-2.16 36.48,-10.64 45.97,-29.45 10.63,-21.08 12.84,-43.99 13.97,-67.06 0.33,-6.79 -1.84,-8.45 -8.44,-6.2 -16.9,5.77 -33.93,11.28 -50.44,18.04 -14.24,5.83 -26.02,15.24 -32.95,29.62 -7.5,15.58 -7.09,31.76 -3.46,48.1 1.7,7.65 1.36,9.17 -4.75,13.59 0,0 -3.93,7.01 -5.21,12.02 z m 83.57,-55.12 c -6.99,14.79 -18.31,23.49 -34.51,25.95 -8.11,1.23 -16.17,2.74 -24.7,4.2 14.84,-24.77 34.38,-45.46 52.93,-66.97 -22.75,15.97 -43.53,33.93 -58.81,57.75 -3.24,-16.81 -0.93,-32.18 10.39,-45.43 6.83,-7.99 15.53,-13.51 25.21,-17.23 13.35,-5.12 26.91,-9.69 41.07,-14.74 -1.72,20.01 -3.27,38.89 -11.58,56.47 z"
   id="path3" />
	
</g>
</svg>
